{"asset":{"version":"2.0","generator":"THREE.GLTFExporter"},"scenes":[{"name":"AuxScene","nodes":[0,1,2]}],"scene":0,"nodes":[{"mesh":0},{"mesh":1},{"mesh":2}],"bufferViews":[{"buffer":0,"byteOffset":0,"byteLength":432,"target":34962,"byteStride":12},{"buffer":0,"byteOffset":432,"byteLength":288,"target":34962,"byteStride":8},{"buffer":0,"byteOffset":720,"byteLength":432,"target":34962,"byteStride":12},{"buffer":0,"byteOffset":1152,"byteLength":432,"target":34962,"byteStride":12},{"buffer":0,"byteOffset":1584,"byteLength":288,"target":34962,"byteStride":8},{"buffer":0,"byteOffset":1872,"byteLength":432,"target":34962,"byteStride":12},{"buffer":0,"byteOffset":2304,"byteLength":432,"target":34962,"byteStride":12},{"buffer":0,"byteOffset":2736,"byteLength":288,"target":34962,"byteStride":8},{"buffer":0,"byteOffset":3024,"byteLength":432,"target":34962,"byteStride":12}],"buffers":[{"byteLength":3456,"uri":"data:application/octet-stream;base64,"}],"accessors":[{"bufferView":0,"componentType":5126,"count":36,"max":[50,-10,25],"min":[-50,-20,-25],"type":"VEC3"},{"bufferView":1,"componentType":5126,"count":36,"max":[50,26],"min":[-50,-24],"type":"VEC2"},{"bufferView":2,"componentType":5126,"count":36,"max":[1,1,1],"min":[-1,-1,-1],"type":"VEC3"},{"bufferView":3,"componentType":5126,"count":36,"max":[-10,-20,5],"min":[-30,-80,-5],"type":"VEC3"},{"bufferView":4,"componentType":5126,"count":36,"max":[-10,6],"min":[-80,-80],"type":"VEC2"},{"bufferView":5,"componentType":5126,"count":36,"max":[1,1,1],"min":[-1,-1,-1],"type":"VEC3"},{"bufferView":6,"componentType":5126,"count":36,"max":[30,-20,5],"min":[10,-80,-5],"type":"VEC3"},{"bufferView":7,"componentType":5126,"count":36,"max":[30,6],"min":[-80,-80],"type":"VEC2"},{"bufferView":8,"componentType":5126,"count":36,"max":[1,1,1],"min":[-1,-1,-1],"type":"VEC3"}],"materials":[{"pbrMetallicRoughness":{"baseColorFactor":[0,1,0,1],"metallicFactor":0,"roughnessFactor":0.9},"extensions":{"KHR_materials_unlit":{}}},{"pbrMetallicRoughness":{"baseColorFactor":[0,1,0,1],"metallicFactor":0,"roughnessFactor":0.9},"extensions":{"KHR_materials_unlit":{}}},{"pbrMetallicRoughness":{"baseColorFactor":[0,1,0,1],"metallicFactor":0,"roughnessFactor":0.9},"extensions":{"KHR_materials_unlit":{}}}],"meshes":[{"primitives":[{"mode":4,"attributes":{"POSITION":0,"TEXCOORD_0":1,"NORMAL":2},"material":0}]},{"primitives":[{"mode":4,"attributes":{"POSITION":3,"TEXCOORD_0":4,"NORMAL":5},"material":1}]},{"primitives":[{"mode":4,"attributes":{"POSITION":6,"TEXCOORD_0":7,"NORMAL":8},"material":2}]}],"extensionsUsed":["KHR_materials_unlit"]}